<?xml version="1.0" standalone="no"?>
<!DOCTYPE svg PUBLIC "-//W3C//DTD SVG 20010904//EN"
 "http://www.w3.org/TR/2001/REC-SVG-20010904/DTD/svg10.dtd">
<svg version="1.0" xmlns="http://www.w3.org/2000/svg"
 width="500.000000pt" height="500.000000pt" viewBox="0 0 500.000000 500.000000"
 preserveAspectRatio="xMidYMid meet">
<metadata>
Created by potrace 1.14, written by Peter Selinger 2001-2017
</metadata>
<g transform="translate(0.000000,500.000000) scale(0.100000,-0.100000)"
fill="#000000" stroke="none">
<path d="M427 4736 c-80 -29 -134 -83 -163 -163 -11 -31 -13 -208 -14 -934 l0
-896 92 -7 c212 -16 454 -71 561 -128 213 -114 68 -246 -349 -317 -67 -11
-162 -23 -213 -27 l-91 -7 2 -911 c3 -910 3 -911 24 -951 28 -51 68 -91 119
-119 l40 -21 2065 0 2065 0 40 21 c51 28 91 68 119 119 21 40 21 41 24 951 l2
911 -91 7 c-213 16 -455 71 -562 128 -213 114 -68 246 349 317 67 11 162 23
213 27 l91 7 -2 911 c-3 910 -3 911 -24 951 -28 51 -68 91 -119 119 l-40 21
-2050 2 c-1703 2 -2056 0 -2088 -11z m2318 -777 c147 -13 227 -29 335 -68 298
-109 445 -331 427 -646 -11 -185 -57 -285 -192 -420 -52 -52 -116 -105 -152
-125 -34 -19 -63 -38 -63 -41 0 -3 30 -14 68 -24 93 -24 235 -93 311 -150 137
-104 236 -264 273 -442 40 -192 11 -438 -69 -596 -135 -269 -392 -443 -753
-513 -72 -14 -187 -18 -777 -21 l-693 -4 0 1530 0 1531 583 0 c323 0 635 -5
702 -11z"/>
<path d="M1870 3180 l0 -442 388 5 c423 5 470 11 588 66 170 80 241 216 231
441 -7 165 -54 241 -183 302 -110 52 -180 59 -621 65 l-403 6 0 -443z"/>
<path d="M1870 1824 l0 -566 418 5 c229 3 453 10 497 17 188 26 307 75 408
169 111 104 147 200 147 391 0 249 -69 375 -254 465 -146 71 -280 85 -838 85
l-378 0 0 -566z"/>
</g>
</svg>
